<?xml version="1.0" encoding="utf-8"?>
<!-- Generator: Adobe Illustrator 23.0.4, SVG Export Plug-In . SVG Version: 6.00 Build 0)  -->
<svg version="1.1" id="图层_1" xmlns="http://www.w3.org/2000/svg" xmlns:xlink="http://www.w3.org/1999/xlink" x="0px" y="0px"
	 width="70px" height="70px" viewBox="0 0 70 70" style="enable-background:new 0 0 70 70;" xml:space="preserve">
<style type="text/css">
	.st0{fill-rule:evenodd;clip-rule:evenodd;fill:#D2D1FF;}
	.st1{fill-rule:evenodd;clip-rule:evenodd;fill:#FFFFFF;}
	.st2{fill:#FFFFFF;}
	.st3{fill:#17191D;}
</style>
<title>AI Image Generator</title>
<circle id="椭圆形" class="st0" cx="35" cy="35" r="35"/>
<g>
	<path id="Path-2_1_" class="st1" d="M23,45.2c0-0.3,2.6-2,7.9-5.2l4.3,2l7.7-6l4.2,2.4l-0.4,6.5c-1.3,1.7-3.7,2.4-7.1,2
		C34.4,46.2,26.7,47.9,23,45.2z"/>
	<path class="st2" d="M41.3,47.5c-0.6,0-1.2,0-1.9-0.1c-1.7-0.2-3.7-0.2-5.8-0.1c-4.1,0.1-8.3,0.2-10.9-1.6l-0.2-0.1l0-0.2
		c-0.1-0.5-0.1-0.7,8.1-5.8l0.2-0.1l4.3,2l7.7-6l4.7,2.8l-0.5,6.9L47,45.2C45.8,46.7,43.9,47.5,41.3,47.5z M36.4,46.2
		c1.1,0,2.2,0,3.2,0.2c3.1,0.4,5.3-0.2,6.5-1.7l0.4-6l-3.6-2.1l-7.6,6l-4.3-2c-4.7,2.9-6.5,4.1-7.1,4.6c2.4,1.3,6.1,1.2,9.8,1.1
		C34.5,46.2,35.5,46.2,36.4,46.2z"/>
</g>
<path class="st3" d="M52,37c0.6,0,1-0.4,1-1c0-0.6-0.4-1-1-1h-4v-6h4c0.6,0,1-0.4,1-1s-0.4-1-1-1h-4v-2c0-1.7-1.3-3-3-3h-3v-4
	c0-0.6-0.4-1-1-1s-1,0.4-1,1v4h-5v-4c0-0.6-0.4-1-1-1s-1,0.4-1,1v4h-4v-4c0-0.6-0.4-1-1-1s-1,0.4-1,1v4h-3c-1.7,0-3,1.3-3,3v2h-3
	c-0.6,0-1,0.4-1,1s0.4,1,1,1h3v6h-3c-0.6,0-1,0.4-1,1c0,0.6,0.4,1,1,1h3v4h-3c-0.6,0-1,0.4-1,1s0.4,1,1,1h3v3c0,1.7,1.3,3,3,3h3v3
	c0,0.6,0.4,1,1,1s1-0.4,1-1v-3h4v3c0,0.6,0.4,1,1,1s1-0.4,1-1v-3h5v3c0,0.6,0.4,1,1,1s1-0.4,1-1v-3h3c1.7,0,3-1.3,3-3v-3h4
	c0.6,0,1-0.4,1-1s-0.4-1-1-1h-4v-4H52z M23,25c0-0.6,0.4-1,1-1h21c0.6,0,1,0.4,1,1v11.9l-1.3-1.1c-1.3-1.1-3.3-1.1-4.6,0l-4.9,4.1
	c-0.6,0.5-1.5,0.5-2.1,0l-0.4-0.3c-1.2-1-3-1.1-4.3-0.2L23,42.8V25z M45,47H24c-0.6,0-1-0.4-1-1v-1c0,0,0,0,0,0
	c0.2,0,0.4-0.1,0.5-0.2l5.9-3.8c0.6-0.4,1.4-0.3,1.9,0.1l0.4,0.3c1.3,1.1,3.3,1.1,4.6,0l4.9-4.1c0.6-0.5,1.5-0.5,2.1,0l1.9,1.6
	c0.2,0.2,0.4,0.2,0.6,0.2V46C46,46.6,45.6,47,45,47z"/>
<g>
	<circle id="Oval_1_" class="st1" cx="29" cy="33" r="2"/>
	<path class="st3" d="M29,36c-1.7,0-3-1.3-3-3s1.3-3,3-3s3,1.3,3,3S30.7,36,29,36z M29,32c-0.6,0-1,0.4-1,1s0.4,1,1,1s1-0.4,1-1
		S29.6,32,29,32z"/>
</g>
</svg>
