<?xml version="1.0" encoding="utf-8"?>
<!-- Generator: Adobe Illustrator 23.0.4, SVG Export Plug-In . SVG Version: 6.00 Build 0)  -->
<svg version="1.1" id="图层_1" xmlns="http://www.w3.org/2000/svg" xmlns:xlink="http://www.w3.org/1999/xlink" x="0px" y="0px"
	 width="70px" height="70px" viewBox="0 0 70 70" style="enable-background:new 0 0 70 70;" xml:space="preserve">
<style type="text/css">
	.st0{fill:#CAFFE3;}
	.st1{fill-rule:evenodd;clip-rule:evenodd;fill:#FFFFFF;}
	.st2{fill:#17191D;}
	.st3{enable-background:new    ;}
</style>
<title>AI Text to Video</title>
<circle id="椭圆形" class="st0" cx="35" cy="35" r="35"/>
<path id="Triangle_1_" class="st1" d="M56.4,36.4c0.1,0.5,0.1,1-0.2,1.5c-0.2,0.3-0.5,0.6-0.8,0.8l0,0L28.6,53.6
	c-0.5,0.3-1,0.3-1.5,0.2c-0.5-0.1-0.9-0.5-1.2-1c-0.2-0.3-0.3-0.6-0.3-1l0,0V22c0-0.6,0.2-1.1,0.6-1.4c0.4-0.4,0.9-0.6,1.4-0.6
	c0.3,0,0.7,0.1,1,0.3l0,0l26.8,14.9C55.9,35.4,56.2,35.9,56.4,36.4z"/>
<path class="st2" d="M27.6,54.8c-0.3,0-0.6,0-0.8-0.1C26,54.5,25.4,54,25,53.3c-0.2-0.4-0.4-0.9-0.4-1.5V22c0-0.8,0.3-1.6,0.9-2.1
	c0.9-0.9,2.4-1.1,3.6-0.5l26.8,14.9c0.7,0.4,1.2,1,1.4,1.8l0,0c0.2,0.8,0.1,1.6-0.3,2.3c-0.3,0.5-0.7,0.9-1.2,1.2L29.1,54.4
	C28.6,54.7,28.1,54.8,27.6,54.8z M27.6,21c-0.3,0-0.5,0.1-0.7,0.3c-0.2,0.2-0.3,0.4-0.3,0.7v29.8c0,0.2,0,0.3,0.1,0.5
	c0.1,0.2,0.3,0.4,0.6,0.5c0.3,0.1,0.5,0,0.8-0.1l26.8-14.9c0.2-0.1,0.3-0.2,0.4-0.4c0.1-0.2,0.2-0.5,0.1-0.8l0,0
	c-0.1-0.3-0.2-0.5-0.5-0.6L28.1,21.1C27.9,21.1,27.8,21,27.6,21z"/>
<g class="st3">
	<path class="st2" d="M37.6,42.5c-0.1,0-0.1,0-0.1,0c0,0-0.1-0.1-0.1-0.1l-1-2.5h-4.6l-1,2.5c0,0.1,0,0.1-0.1,0.1c0,0-0.1,0-0.1,0
		h-1.3c-0.2,0-0.2-0.1-0.2-0.2L33.3,32c0-0.1,0-0.1,0.1-0.1c0,0,0.1,0,0.2,0h1.3c0.1,0,0.1,0,0.2,0c0,0,0,0.1,0.1,0.1l4.1,10.2
		c0,0.1,0,0.2-0.2,0.2H37.6z M32.4,38.3h3.4L34.1,34L32.4,38.3z"/>
	<path class="st2" d="M41.6,42.5h-1.3c-0.1,0-0.2-0.1-0.2-0.2V32.1c0-0.1,0.1-0.2,0.2-0.2h1.3c0.1,0,0.2,0.1,0.2,0.2v10.2
		C41.8,42.4,41.7,42.5,41.6,42.5z"/>
</g>
</svg>
