<?xml version="1.0" encoding="utf-8"?>
<!-- Generator: Adobe Illustrator 23.0.4, SVG Export Plug-In . SVG Version: 6.00 Build 0)  -->
<svg version="1.1" id="图层_1" xmlns="http://www.w3.org/2000/svg" xmlns:xlink="http://www.w3.org/1999/xlink" x="0px" y="0px"
	 width="70px" height="70px" viewBox="0 0 70 70" style="enable-background:new 0 0 70 70;" xml:space="preserve">
<style type="text/css">
	.st0{fill-rule:evenodd;clip-rule:evenodd;fill:#D2D1FF;}
	.st1{fill-rule:evenodd;clip-rule:evenodd;fill:#FFFFFF;}
	.st2{fill:#17191D;}
	.st3{fill-rule:evenodd;clip-rule:evenodd;fill:#17191D;}
</style>
<circle id="椭圆形" class="st0" cx="35" cy="35" r="35"/>
<path id="Rectangle_1_" class="st1" d="M40.7,20.5l7,8.1v19.9c0,0.3-0.1,0.5-0.3,0.7c-0.2,0.2-0.4,0.3-0.7,0.3l0,0h-22
	c-0.3,0-0.5-0.1-0.7-0.3c-0.2-0.2-0.3-0.4-0.3-0.7l0,0v-27c0-0.3,0.1-0.5,0.3-0.7c0.2-0.2,0.4-0.3,0.7-0.3l0,0H40.7z"/>
<path class="st2" d="M46.8,50.5h-22c-0.5,0-1-0.2-1.4-0.6c-0.4-0.4-0.6-0.9-0.6-1.4v-27c0-0.5,0.2-1,0.6-1.4
	c0.4-0.4,0.9-0.6,1.4-0.6h16.4l7.6,8.8v20.2c0,0.5-0.2,1-0.6,1.4S47.3,50.5,46.8,50.5z M24.8,21.5v27h22V29l-6.5-7.5H24.8z"/>
<path id="Combined-Shape" class="st2" d="M36.9,35c0.2-0.4,0.6-0.6,0.9-0.4c0.4,0.2,0.5,0.6,0.4,1l0,0L33.6,47
	c-0.1,0.3-0.4,0.5-0.7,0.5c-0.1,0-0.2,0-0.3-0.1c-0.4-0.2-0.5-0.6-0.4-1l0,0L36.9,35z M30.8,37.6c0.3-0.3,0.8-0.3,1.2,0
	c0.3,0.3,0.3,0.8,0,1.1l0,0L29.7,41l2.3,2.2c0.3,0.3,0.3,0.8,0,1.1c-0.2,0.2-0.4,0.2-0.6,0.2s-0.4-0.1-0.6-0.2l0,0L28,41.6
	c-0.3-0.3-0.3-0.8,0-1.1l0,0L30.8,37.6z M38.5,37.6c0.3-0.3,0.8-0.3,1.2,0l0,0l2.8,2.8c0.3,0.3,0.3,0.8,0,1.1l0,0l-2.8,2.8
	c-0.2,0.2-0.4,0.2-0.6,0.2s-0.4-0.1-0.6-0.2c-0.3-0.3-0.3-0.8,0-1.1l0,0l2.3-2.2l-2.3-2.2C38.2,38.5,38.2,37.9,38.5,37.6z"/>
<path class="st0" d="M17.8,23.5h12c1.1,0,2,0.9,2,2v12c0,1.1-0.9,2-2,2h-12c-1.1,0-2-0.9-2-2v-12C15.8,24.4,16.6,23.5,17.8,23.5z"/>
<path class="st2" d="M29.8,40.5h-12c-1.7,0-3-1.3-3-3v-12c0-1.7,1.3-3,3-3h12c1.7,0,3,1.3,3,3v12C32.8,39.2,31.4,40.5,29.8,40.5z
	 M17.8,24.5c-0.6,0-1,0.4-1,1v12c0,0.6,0.4,1,1,1h12c0.6,0,1-0.4,1-1v-12c0-0.6-0.4-1-1-1H17.8z"/>
<path id="Triangle" class="st3" d="M26.1,31.9L21.5,35c-0.2,0.2-0.5,0.1-0.7-0.1c-0.1-0.1-0.1-0.2-0.1-0.3v-6.1
	c0-0.3,0.2-0.5,0.5-0.5c0.1,0,0.2,0,0.3,0.1l4.6,3.1c0.2,0.2,0.3,0.5,0.1,0.7C26.2,31.8,26.2,31.9,26.1,31.9z"/>
</svg>
