<?xml version="1.0" encoding="UTF-8"?>
<svg width="70px" height="70px" viewBox="0 0 70 70" version="1.1" xmlns="http://www.w3.org/2000/svg" xmlns:xlink="http://www.w3.org/1999/xlink">
    <title>background remover</title>
    <g id="background-remover" stroke="none" stroke-width="1" fill="none" fill-rule="evenodd">
        <g id="background-remover备份-2">
            <circle id="椭圆形" fill="#FFDCC0" cx="35" cy="35" r="35"></circle>
            <path d="M52.5,20 C53.8807119,20 55,21.1192881 55,22.5 L55,22.5 L55,47.5 C55,48.8807119 53.8807119,50 52.5,50 L52.5,50 L17.5,50 C16.1192881,50 15,48.8807119 15,47.5 L15,47.5 L15,22.5 C15,21.1192881 16.1192881,20 17.5,20 L17.5,20 Z M52.5,22 L17.5,22 C17.2238576,22 17,22.2238576 17,22.5 L17,22.5 L17,47.5 C17,47.7761424 17.2238576,48 17.5,48 L17.5,48 L52.5,48 C52.7761424,48 53,47.7761424 53,47.5 L53,47.5 L53,22.5 C53,22.2238576 52.7761424,22 52.5,22 L52.5,22 Z" id="形状结合" fill="#17191D" fill-rule="nonzero"></path>
            <path d="M32.7777778,22 C32.9005077,22 33,22.2238576 33,22.5 L33,47.5 C33,47.7761424 32.9005077,48 32.7777778,48 L17.2222222,48 C17.0994923,48 17,47.7761424 17,47.5 L17,22.5 C17,22.2238576 17.0994923,22 17.2222222,22 L32.7777778,22 Z" id="路径备份-2" fill="#FFFFFF" fill-rule="nonzero"></path>
            <polygon id="Fill-7备份-2" fill="#17191D" points="48 32.0004 53 32.0004 53 27.0004 48 27.0004"></polygon>
            <polygon id="Fill-7备份-13" fill="#17191D" points="38 31.0004 43 31.0004 43 26.0004 38 26.0004"></polygon>
            <polygon id="Fill-7备份-10" fill="#17191D" points="48 42.0004 53 42.0004 53 37.0004 48 37.0004"></polygon>
            <polygon id="Fill-7备份-14" fill="#17191D" points="38 41.0004 43 41.0004 43 36.0004 38 36.0004"></polygon>
            <polygon id="Fill-7备份-9" fill="#17191D" points="43 37.0004 48 37.0004 48 32.0004 43 32.0004"></polygon>
            <polygon id="Fill-7备份-15" fill="#17191D" points="33 36.0004 38 36.0004 38 31.0004 33 31.0004"></polygon>
            <polygon id="Fill-7备份-11" fill="#17191D" points="43 47.0004 48 47.0004 48 42.0004 43 42.0004"></polygon>
            <polygon id="Fill-7备份-16" fill="#17191D" points="33 46.0004 38 46.0004 38 41.0004 33 41.0004"></polygon>
            <polygon id="Fill-7备份-12" fill="#17191D" points="48 49.0004 53 49.0004 53 47.0004 48 47.0004"></polygon>
            <polygon id="Fill-7备份-17" fill="#17191D" points="38 48.0004 43 48.0004 43 46.0004 38 46.0004"></polygon>
            <polygon id="Fill-7备份-3" fill="#17191D" points="43 27.0004 48 27.0004 48 22.0004 43 22.0004"></polygon>
            <polygon id="Fill-7备份-18" fill="#17191D" points="33 26.0004 38 26.0004 38 21.0004 33 21.0004"></polygon>
        </g>
    </g>
</svg>